<svg width="626" height="91" viewBox="0 0 626 91" fill="none" xmlns="http://www.w3.org/2000/svg">
<path d="M32.8 14.6L12.6 69.0001H0L20.9 12.8C23.5 5.10004 27.8 0.300048 36.8 0.300048C46.8 0.300048 51.8 6.20005 51.8 15V54.9001C51.8 57.2001 53.2 58.7001 55.2 58.7001C57 58.7001 58.4 57.6001 59 55.9001L75.4 12.8C78 5.10004 82.3 0.300048 91.3 0.300048C101.3 0.300048 106.3 6.20005 106.3 15V69.0001H94.4V15.6C94.4 13.2 93 11.7001 91 11.7001C89.3 11.7001 87.9 12.9 87.3 14.6L70.9 57.7001C68.3 65.4001 63.9 70.2001 54.9 70.2001C45 70.2001 40 64.3001 40 55.4001V15.6C40 13.2 38.5 11.7001 36.5 11.7001C34.7 11.7001 33.5 12.9 32.8 14.6Z" fill="#40A04C"/>
<path d="M122.609 1.50005H134.409V69.0001H122.609V1.50005Z" fill="#40A04C"/>
<path d="M178.834 14.7L157.434 69.0001H144.434L168.134 9.00005C170.634 2.70005 175.234 0.300048 182.334 0.300048C189.334 0.300048 193.934 2.70005 196.334 9.00005L219.134 69.0001H206.034L185.534 14.7C184.934 13.1 183.834 12.4 182.234 12.4C180.634 12.4 179.534 13.1 178.834 14.7Z" fill="#40A04C"/>
<path d="M228.552 0H239.152V16.2001H262.552C276.552 16.2001 285.352 24.8 285.352 42.6001C285.352 60.4001 276.552 69.0001 262.552 69.0001H247.952C235.252 69.0001 228.552 61.6 228.552 46.4V0ZM261.452 26.4H239.152V45.9C239.152 54.9 242.452 58.7001 251.052 58.7001H261.452C270.652 58.7001 274.652 54.0001 274.652 42.6001C274.652 31.2 270.652 26.4 261.452 26.4Z" fill="#282828"/>
<path d="M318.483 16.2001H329.583C343.583 16.2001 352.483 24.8 352.483 42.6001C352.483 60.4001 343.583 69.0001 329.583 69.0001H318.483C304.383 69.0001 295.583 60.4001 295.583 42.6001C295.583 24.8 304.383 16.2001 318.483 16.2001ZM328.583 26.4H319.483C310.283 26.4 306.283 31.2 306.283 42.6001C306.283 54.0001 310.283 58.7001 319.483 58.7001H328.583C337.683 58.7001 341.783 54.0001 341.783 42.6001C341.783 31.2 337.683 26.4 328.583 26.4Z" fill="#282828"/>
<path d="M385.573 16.2001H400.173C412.773 16.2001 419.573 23.6 419.573 38.8V69.2001C419.573 84.2001 414.373 90.1001 399.573 90.1001H368.173V79.9001H398.373C406.273 79.9001 408.873 76.8001 408.873 69.2001V66.8001H385.573C371.473 66.8001 362.673 58.5 362.673 41.4C362.673 24.4 371.473 16.2001 385.573 16.2001ZM373.373 41.8C373.373 52.6 377.473 57.2001 386.573 57.2001H408.873V38.7001C408.873 30.1 405.573 26.4 397.073 26.4H386.573C377.473 26.4 373.373 31 373.373 41.8Z" fill="#282828"/>
<path d="M436.511 16.2001H468.211C481.411 16.2001 486.611 23.6 486.611 33.6001V58.4001C486.611 66.0001 484.611 69.0001 475.711 69.0001H451.011C438.511 69.0001 433.311 62.9001 433.311 52.9001C433.311 43.3001 438.111 37.7001 451.111 37.7001H476.211V33.7001C476.211 29.6 473.911 26.4 468.111 26.4H436.511V16.2001ZM473.311 58.7001C475.411 58.7001 476.211 57.9001 476.211 56.0001V46.1001H451.311C445.711 46.1001 443.711 48.4 443.711 52.3C443.711 56.2 445.811 58.7001 451.111 58.7001H473.311Z" fill="#282828"/>
<path d="M545.298 0H555.998V46.4C555.998 61.6 549.198 69.0001 536.598 69.0001H521.998C507.898 69.0001 499.098 60.4001 499.098 42.6001C499.098 24.8 507.898 16.2001 521.998 16.2001H545.298V0ZM533.498 58.7001C541.998 58.7001 545.298 54.9 545.298 45.9V26.4H522.998C513.898 26.4 509.798 31.2 509.798 42.6001C509.798 54.0001 513.898 58.7001 522.998 58.7001H533.498Z" fill="#282828"/>
<path d="M591.53 16.2001H602.63C616.63 16.2001 625.53 24.8 625.53 42.6001C625.53 60.4001 616.63 69.0001 602.63 69.0001H591.53C577.43 69.0001 568.63 60.4001 568.63 42.6001C568.63 24.8 577.43 16.2001 591.53 16.2001ZM601.63 26.4H592.53C583.33 26.4 579.33 31.2 579.33 42.6001C579.33 54.0001 583.33 58.7001 592.53 58.7001H601.63C610.73 58.7001 614.83 54.0001 614.83 42.6001C614.83 31.2 610.73 26.4 601.63 26.4Z" fill="#282828"/>
</svg>